<?xml version="1.0" encoding="utf-8" standalone="no"?>
<!DOCTYPE svg PUBLIC "-//W3C//DTD SVG 1.1//EN"
  "http://www.w3.org/Graphics/SVG/1.1/DTD/svg11.dtd">
<!-- Created with matplotlib (http://matplotlib.sourceforge.net/) -->
<svg height="432pt" version="1.1" viewBox="0 0 576 432" width="576pt" xmlns="http://www.w3.org/2000/svg" xmlns:xlink="http://www.w3.org/1999/xlink">
 <defs>
  <style type="text/css">
*{stroke-linecap:square;stroke-linejoin:round;}
  </style>
 </defs>
 <g id="figure_1">
  <g id="patch_1">
   <path d="
M0 432
L576 432
L576 0
L0 0
z
" style="fill:#ffffff;"/>
  </g>
  <g id="axes_1">
   <g id="line2d_1">
    <path clip-path="url(#p7ff5b81e1d)" d="
M116.64 323.897
L135.907 323.569
L140.339 323.31
L146.068 322.87
L152.508 322.667
L155.503 322.337
L160.112 321.589
L167.866 320.072
L170.507 319.968
L176.784 320.143
L182.712 319.983
L196.193 321.094
L198.743 321.568
L206.337 323.484
L209.487 323.759
L214.701 323.836
L216.235 323.738
L217.915 323.508
L219.642 323.104
L221.301 322.494
L222.818 321.66
L224.181 320.591
L225.42 319.285
L226.579 317.751
L227.692 316.01
L229.841 312.022
L234.601 301.909
L237.887 294.989
L239.713 290.915
L241.524 286.458
L243.211 281.676
L244.71 276.641
L246.027 271.412
L248.393 260.456
L250.929 248.757
L256.662 223.264
L259.201 210.231
L261.572 197.4
L262.844 191.09
L264.261 184.907
L265.855 178.928
L267.591 173.226
L270.998 162.722
L272.376 157.854
L273.459 153.218
L275.253 144.902
L276.379 141.423
L277.845 138.476
L279.623 136.047
L281.565 134.1
L283.474 132.626
L285.193 131.667
L286.659 131.304
L287.905 131.613
L289.034 132.64
L290.174 134.372
L292.868 139.683
L296.173 146.809
L297.862 150.876
L299.424 155.278
L300.779 160.075
L301.908 165.324
L302.864 171.034
L304.734 183.495
L305.883 189.96
L307.222 196.427
L311.517 215.872
L316.737 243.055
L319.645 256.213
L321.159 262.374
L322.763 268.224
L324.494 273.787
L328.187 284.144
L331.491 293.418
L335.205 304.871
L336.358 308.009
L338.673 313.328
L339.797 315.55
L340.916 317.506
L342.103 319.195
L343.448 320.606
L345.014 321.726
L346.782 322.557
L348.644 323.133
L351.968 323.733
L354.095 323.863
L354.85 323.769
L356.606 323.223
L369.567 318.635
L374.046 316.59
L376.662 315.769
L380.431 314.829
L382.94 314.501
L386.3 314.455
L393.398 314.748
L395.875 315.148
L398.88 315.935
L403.242 317.199
L410.689 319.129
L413.74 320.207
L416.371 320.796
L419.988 321.368
L428.363 322.524
L430.719 322.957
L435.416 323.505
L440.181 323.803
L448.594 324.071
L450.805 323.908
L453.177 323.808
L463.178 323.857
L470.144 323.997
L473.609 323.828
L475.226 323.574
L475.226 323.574" style="fill:none;stroke:#00bfbf;stroke-width:2;"/>
   </g>
   <g id="line2d_2">
    <path clip-path="url(#p7ff5b81e1d)" d="
M116.64 259.2
L127.704 259.107
L137.367 258.855
L140.339 258.748
L143.297 258.92
L147.355 259.429
L148.6 259.457
L151.137 259.182
L153.97 258.752
L157.067 258.558
L160.112 258.696
L166.642 259.295
L175.167 259.034
L181.318 259.11
L184.064 259.174
L189.387 259.495
L192.191 259.373
L194.908 259.222
L197.458 259.325
L201.515 259.642
L204.669 259.608
L219.642 259.178
L225.42 259.542
L227.692 259.3
L233.234 258.469
L236.158 258.233
L239.713 258.214
L248.393 258.476
L250.929 258.146
L253.804 257.553
L256.662 256.616
L260.381 255.018
L261.572 254.639
L267.591 253.346
L269.358 252.751
L270.998 252.022
L272.376 251.212
L273.459 250.37
L275.253 248.659
L276.379 247.77
L277.845 246.848
L286.659 242.024
L291.433 238.51
L300.779 232.699
L303.761 230.539
L305.883 229.405
L308.679 228.323
L310.14 227.966
L311.517 227.839
L312.804 227.966
L314.061 228.316
L316.737 229.473
L319.645 230.979
L322.763 232.776
L326.333 235.1
L328.187 236.55
L329.936 238.171
L331.491 239.882
L336.358 245.908
L338.673 248.53
L343.448 254.642
L345.014 255.989
L346.782 257.097
L348.644 257.938
L350.427 258.513
L351.968 258.834
L353.18 258.914
L354.095 258.754
L354.85 258.353
L356.606 256.793
L359.4 254.114
L361.143 252.283
L362.984 250.091
L364.818 247.538
L366.563 244.653
L368.157 241.48
L369.567 238.063
L370.788 234.422
L372.923 226.482
L375.304 217.783
L379.272 204.37
L382.94 190.486
L386.3 179.958
L389.748 169.178
L393.398 156.338
L394.557 153.247
L395.875 150.576
L397.344 148.171
L400.39 143.79
L401.832 141.81
L403.242 140.065
L404.698 138.654
L406.242 137.652
L407.833 137.084
L409.356 136.915
L410.689 137.085
L411.794 137.56
L412.756 138.358
L413.74 139.548
L419.988 148.452
L421.894 151.285
L423.657 154.215
L425.164 157.287
L426.388 160.585
L427.403 164.177
L429.434 172.191
L430.719 176.428
L432.21 180.664
L438.531 196.941
L440.181 200.969
L441.983 204.972
L447.365 216.223
L448.594 219.582
L449.453 222.74
L450.805 228.585
L451.786 231.338
L453.177 233.977
L454.951 236.456
L456.933 238.718
L460.571 242.531
L463.178 245.794
L464.48 247.421
L466.088 249.08
L468.039 250.733
L473.609 255.018
L474.616 256.068
L475.226 256.888
L475.226 256.888" style="fill:none;stroke:#ffffff;stroke-width:7;"/>
   </g>
   <g id="line2d_3">
    <path clip-path="url(#p7ff5b81e1d)" d="
M116.64 259.2
L127.704 259.107
L137.367 258.855
L140.339 258.748
L143.297 258.92
L147.355 259.429
L148.6 259.457
L151.137 259.182
L153.97 258.752
L157.067 258.558
L160.112 258.696
L166.642 259.295
L175.167 259.034
L181.318 259.11
L184.064 259.174
L189.387 259.495
L192.191 259.373
L194.908 259.222
L197.458 259.325
L201.515 259.642
L204.669 259.608
L219.642 259.178
L225.42 259.542
L227.692 259.3
L233.234 258.469
L236.158 258.233
L239.713 258.214
L248.393 258.476
L250.929 258.146
L253.804 257.553
L256.662 256.616
L260.381 255.018
L261.572 254.639
L267.591 253.346
L269.358 252.751
L270.998 252.022
L272.376 251.212
L273.459 250.37
L275.253 248.659
L276.379 247.77
L277.845 246.848
L286.659 242.024
L291.433 238.51
L300.779 232.699
L303.761 230.539
L305.883 229.405
L308.679 228.323
L310.14 227.966
L311.517 227.839
L312.804 227.966
L314.061 228.316
L316.737 229.473
L319.645 230.979
L322.763 232.776
L326.333 235.1
L328.187 236.55
L329.936 238.171
L331.491 239.882
L336.358 245.908
L338.673 248.53
L343.448 254.642
L345.014 255.989
L346.782 257.097
L348.644 257.938
L350.427 258.513
L351.968 258.834
L353.18 258.914
L354.095 258.754
L354.85 258.353
L356.606 256.793
L359.4 254.114
L361.143 252.283
L362.984 250.091
L364.818 247.538
L366.563 244.653
L368.157 241.48
L369.567 238.063
L370.788 234.422
L372.923 226.482
L375.304 217.783
L379.272 204.37
L382.94 190.486
L386.3 179.958
L389.748 169.178
L393.398 156.338
L394.557 153.247
L395.875 150.576
L397.344 148.171
L400.39 143.79
L401.832 141.81
L403.242 140.065
L404.698 138.654
L406.242 137.652
L407.833 137.084
L409.356 136.915
L410.689 137.085
L411.794 137.56
L412.756 138.358
L413.74 139.548
L419.988 148.452
L421.894 151.285
L423.657 154.215
L425.164 157.287
L426.388 160.585
L427.403 164.177
L429.434 172.191
L430.719 176.428
L432.21 180.664
L438.531 196.941
L440.181 200.969
L441.983 204.972
L447.365 216.223
L448.594 219.582
L449.453 222.74
L450.805 228.585
L451.786 231.338
L453.177 233.977
L454.951 236.456
L456.933 238.718
L460.571 242.531
L463.178 245.794
L464.48 247.421
L466.088 249.08
L468.039 250.733
L473.609 255.018
L474.616 256.068
L475.226 256.888
L475.226 256.888" style="fill:none;stroke:#ff0000;stroke-width:2;"/>
   </g>
  </g>
 </g>
 <defs>
  <clipPath id="p7ff5b81e1d">
   <rect height="345.6" width="446.4" x="72.0" y="43.2"/>
  </clipPath>
 </defs>
</svg>
